<svg version="1.1" xmlns="http://www.w3.org/2000/svg" viewBox="0 0 1269.404761904762 1465.1190476190477" width="1269.404761904762" height="1465.1190476190477">
  <!-- svg-source:excalidraw -->
  
  <defs>
    <style>
      @font-face {
        font-family: "Virgil";
        src: url("https://excalidraw.com/Virgil.woff2");
      }
      @font-face {
        font-family: "Cascadia";
        src: url("https://excalidraw.com/Cascadia.woff2");
      }
    </style>
  </defs>
  <rect x="0" y="0" width="1269.404761904762" height="1465.1190476190477" fill="#ffffff"/><g stroke-linecap="round" transform="translate(713 233.15873015873012) rotate(0 151 151)"><path d="M139.47 0.08 C154.28 -3.5, 172.66 0.4, 187.94 4.32 C203.21 8.23, 218.02 15.35, 231.12 23.57 C244.22 31.79, 256.55 41.9, 266.54 53.64 C276.53 65.37, 285.14 79.63, 291.06 93.98 C296.97 108.32, 300.98 124.25, 302.03 139.71 C303.07 155.16, 300.96 171.7, 297.31 186.72 C293.66 201.75, 288.22 216.64, 280.15 229.86 C272.09 243.08, 260.99 255.95, 248.93 266.05 C236.86 276.15, 222.25 284.55, 207.75 290.47 C193.26 296.4, 177.5 300.48, 161.96 301.6 C146.41 302.71, 129.61 300.93, 114.49 297.16 C99.38 293.39, 84.44 287.07, 71.27 278.97 C58.1 270.87, 45.53 260.44, 35.48 248.59 C25.43 236.74, 16.77 222.24, 10.97 207.89 C5.16 193.53, 1.8 177.78, 0.66 162.45 C-0.48 147.12, 0.54 131.12, 4.14 115.93 C7.74 100.74, 14.12 84.76, 22.27 71.3 C30.43 57.83, 41.02 45.2, 53.09 35.14 C65.15 25.08, 79 16.95, 94.68 10.94 C110.37 4.93, 137.11 0.42, 147.2 -0.92 C157.29 -2.25, 155.19 0.36, 155.21 2.94 M178.32 2.92 C193.18 3.56, 208.45 11.84, 222.32 19.36 C236.2 26.88, 250.58 36.62, 261.54 48.04 C272.5 59.46, 281.45 74.04, 288.07 87.86 C294.7 101.68, 299.52 115.98, 301.28 130.94 C303.03 145.9, 301.69 162.27, 298.61 177.64 C295.53 193.02, 289.99 209.34, 282.8 223.2 C275.6 237.06, 266.75 250.29, 255.44 260.8 C244.13 271.31, 229.04 279.56, 214.92 286.25 C200.79 292.93, 186.01 298.92, 170.69 300.92 C155.37 302.93, 138.61 301, 123.01 298.27 C107.4 295.54, 90.79 291.58, 77.05 284.54 C63.31 277.5, 51.08 267.36, 40.57 256.01 C30.06 244.66, 20.72 230.94, 13.99 216.45 C7.27 201.95, 1.9 184.83, 0.21 169.04 C-1.48 153.25, 1.01 136.74, 3.85 121.68 C6.69 106.62, 10.05 92.3, 17.24 78.71 C24.44 65.11, 35.67 50.85, 47.02 40.11 C58.37 29.38, 71.38 20.6, 85.33 14.32 C99.28 8.04, 115.34 4.45, 130.71 2.45 C146.07 0.44, 169.31 1.55, 177.52 2.28 C185.72 3.01, 180.18 4.48, 179.92 6.82" stroke="#000000" stroke-width="1" fill="none"/></g><g stroke-linecap="round" transform="translate(259.1428571428572 224.7301587301588) rotate(0 151 151)"><path d="M173.47 2.39 C188.47 2.06, 203.67 8.88, 217.68 15.85 C231.68 22.82, 246.13 33.19, 257.49 44.21 C268.85 55.22, 278.74 68.13, 285.82 81.94 C292.9 95.76, 297.66 112.02, 299.98 127.09 C302.3 142.17, 302.02 157.01, 299.73 172.37 C297.43 187.73, 293.21 205.12, 286.2 219.27 C279.19 233.42, 268.67 246.48, 257.68 257.27 C246.69 268.05, 233.98 276.81, 220.26 283.96 C206.54 291.11, 190.71 297.51, 175.35 300.16 C159.99 302.82, 143.53 302.38, 128.09 299.88 C112.66 297.39, 96.59 292.18, 82.73 285.19 C68.87 278.19, 55.86 268.74, 44.91 257.93 C33.96 247.12, 24.08 233.91, 17.05 220.32 C10.03 206.74, 5.21 191.73, 2.76 176.41 C0.3 161.1, 0.22 143.82, 2.32 128.42 C4.42 113.02, 8.65 97.98, 15.36 84.02 C22.08 70.05, 31.7 55.85, 42.61 44.62 C53.52 33.4, 66.79 23.78, 80.83 16.68 C94.86 9.57, 109.67 4.21, 126.82 1.97 C143.97 -0.27, 172.57 1.91, 183.74 3.23 C194.9 4.54, 194.35 7.17, 193.81 9.86 M163.04 0.35 C178.4 -0.81, 196.18 5, 210.81 10.98 C225.43 16.97, 239.41 25.89, 250.79 36.24 C262.16 46.59, 271.12 59.57, 279.05 73.07 C286.98 86.57, 294.62 101.95, 298.39 117.23 C302.16 132.51, 303.14 149.44, 301.69 164.74 C300.24 180.04, 295.62 195.07, 289.68 209.03 C283.75 222.99, 276.35 236.56, 266.06 248.51 C255.76 260.46, 241.49 272.49, 227.92 280.72 C214.35 288.95, 199.44 294.36, 184.64 297.88 C169.84 301.4, 154.65 303.08, 139.1 301.84 C123.55 300.6, 105.73 296.38, 91.32 290.44 C76.91 284.5, 64.14 276.54, 52.62 266.2 C41.1 255.86, 30.25 242.01, 22.22 228.38 C14.2 214.76, 8.08 199.37, 4.48 184.45 C0.88 169.53, -0.49 154.21, 0.64 138.86 C1.77 123.51, 5.15 106.89, 11.25 92.35 C17.35 77.81, 26.85 63.25, 37.23 51.63 C47.61 40, 60.32 30.34, 73.52 22.61 C86.71 14.87, 101.41 8.7, 116.41 5.23 C131.41 1.76, 155.74 2.04, 163.5 1.79 C171.27 1.54, 163.06 1.63, 163.01 3.73" stroke="#000000" stroke-width="1" fill="none"/></g><g stroke-linecap="round" transform="translate(489.25 1057.6587301587301) rotate(0 151 151)"><path d="M83.86 15.38 C95.84 6.68, 112.71 4.45, 128.11 2.37 C143.51 0.28, 160.81 0.43, 176.27 2.84 C191.73 5.26, 207.03 9.97, 220.87 16.85 C234.71 23.74, 248.63 33.11, 259.3 44.17 C269.97 55.23, 277.93 69.39, 284.9 83.22 C291.87 97.05, 298.53 111.86, 301.12 127.15 C303.7 142.44, 303.24 159.53, 300.42 174.96 C297.6 190.38, 291.35 205.9, 284.19 219.71 C277.03 233.51, 268.42 246.88, 257.45 257.77 C246.49 268.66, 232.5 277.99, 218.41 285.03 C204.32 292.08, 188.35 297.53, 172.93 300.03 C157.5 302.53, 141.12 302.38, 125.87 300.03 C110.61 297.67, 95 292.91, 81.39 285.88 C67.78 278.86, 55.13 269.14, 44.21 257.88 C33.29 246.63, 22.89 232.47, 15.88 218.34 C8.88 204.22, 4.57 188.51, 2.17 173.14 C-0.24 157.78, -0.91 141.24, 1.47 126.13 C3.85 111.01, 9.24 96.32, 16.44 82.46 C23.65 68.6, 31.27 55.18, 44.68 42.96 C58.1 30.73, 85.49 15.07, 96.96 9.12 C108.42 3.18, 112.35 4.81, 113.48 7.3 M85.57 16.11 C97.85 7.85, 114.84 4.9, 130.21 2.44 C145.58 -0.01, 162.31 -1.32, 177.8 1.37 C193.28 4.05, 209.23 10.93, 223.11 18.55 C236.98 26.17, 250.19 35.97, 261.06 47.09 C271.92 58.2, 281.76 71.12, 288.28 85.24 C294.8 99.35, 298.5 116.49, 300.18 131.78 C301.86 147.07, 300.99 161.92, 298.36 176.96 C295.72 191.99, 291.61 207.96, 284.39 221.98 C277.16 236, 266.3 250.42, 255 261.09 C243.71 271.76, 230.59 279.37, 216.62 286.02 C202.66 292.66, 186.55 298.65, 171.22 300.96 C155.89 303.28, 140.12 302.68, 124.64 299.91 C109.16 297.13, 92.35 291.76, 78.35 284.32 C64.35 276.88, 51.13 266.68, 40.62 255.24 C30.12 243.81, 21.9 229.65, 15.33 215.7 C8.76 201.74, 3.46 186.71, 1.2 171.5 C-1.06 156.3, -1.18 139.88, 1.78 124.48 C4.73 109.07, 11.22 92.9, 18.94 79.07 C26.66 65.24, 36.76 52.28, 48.1 41.51 C59.45 30.74, 80.49 18.3, 87.02 14.45 C93.54 10.59, 86.57 16.06, 87.25 18.37" stroke="#000000" stroke-width="1" fill="none"/></g><g transform="translate(763.2142857142858 368.4047619047619) rotate(0 108 27)"><text x="0" y="38" font-family="Helvetica, Segoe UI Emoji" font-size="36px" fill="#000000" text-anchor="start" style="white-space: pre;" direction="ltr">ドキュメント</text></g><g transform="translate(602.035714285714 1204.1904761904761) rotate(0 35 21)"><text x="0" y="33" font-family="Helvetica, Segoe UI Emoji" font-size="36px" fill="#000000" text-anchor="start" style="white-space: pre;" direction="ltr">UE4</text></g><g transform="translate(372.7142857142858 368.83333333333326) rotate(0 38 21)"><text x="0" y="33" font-family="Helvetica, Segoe UI Emoji" font-size="36px" fill="#000000" text-anchor="start" style="white-space: pre;" direction="ltr">UML</text></g><g stroke-linecap="round" transform="translate(10 87.5) rotate(0 620 297.5)"><path d="M0.06 -0.63 C447.87 -2.73, 895.95 -3.04, 1240.15 0.63 M-0.25 0.22 C265.55 -0.94, 530.48 -1.36, 1240.26 0.27 M1240.19 -0.43 C1239.34 217.58, 1239.44 436.52, 1239.76 595.57 M1239.74 -0.15 C1241.47 162.21, 1241.33 324.5, 1239.94 594.68 M1240.21 594.3 C926.75 593.36, 614.59 593.45, 0.07 594.52 M1239.65 594.85 C796.36 595.71, 352.39 596.12, -0.28 594.94 M-0.28 594.68 C0.75 417.95, -0.58 242.47, -0.17 0.79 M0.35 594.91 C-0.22 471.41, -0.51 348.02, 0.21 -0.16" stroke="#000000" stroke-width="1" fill="none"/></g><g stroke-linecap="round" transform="translate(355 10) rotate(0 271.25 70)"><path d="M0.49 -0.51 L544.31 1.07 L544.03 138.87 L0.63 141.96" stroke="none" stroke-width="0" fill="#ffffff"/><path d="M0.22 -0.73 C182.27 -2.18, 365.38 -1.58, 542.23 -0.14 M0.11 0.18 C210.5 0.42, 421.07 0.17, 542.17 -0.33 M543.26 0.1 C541.67 38.13, 542.91 74.59, 542.64 140.06 M542.9 0.47 C543.61 49.24, 544.21 101.22, 542.06 140.06 M541.93 140.22 C370.48 138.44, 197.56 138.77, -0.64 139.53 M542.29 140.06 C357.47 139.89, 171.98 140.07, -0.15 140.37 M-0.95 139 C0.19 101.65, -1.85 64.58, 0.19 -0.36 M0.67 139.61 C-0.2 109.83, -0.16 77.23, 0.55 0.53" stroke="#000000" stroke-width="1" fill="none"/></g><g transform="translate(587.5 61) rotate(0 36 21)"><text x="0" y="33" font-family="Helvetica, Segoe UI Emoji" font-size="36px" fill="#000000" text-anchor="start" style="white-space: pre;" direction="ltr">Plan</text></g><g stroke-linecap="round" transform="translate(19.404761904761926 860.1190476190476) rotate(0 620 297.50000000000006)"><path d="M0.77 -0.27 C387.52 0.18, 775.89 0.33, 1239.62 -0.27 M-0.35 -0.29 C354.6 -1.25, 709.53 -0.75, 1239.72 -0.31 M1240.02 0.5 C1239.48 175.32, 1240.39 349.35, 1239.73 594.42 M1240.24 -0.21 C1240.77 209.05, 1240.83 418.33, 1240.14 595.04 M1239.79 594.36 C814.01 595.02, 388.95 594.36, 0.71 594.82 M1240.39 595.26 C870.15 598.08, 500.06 598.21, -0.18 594.77 M0.03 594.95 C0.63 404.96, 0.38 216.23, 0.78 0.42 M0.39 595.13 C0.08 457.66, -0.69 320.1, -0.34 -0.25" stroke="#000000" stroke-width="1" fill="none"/></g><g stroke-linecap="round" transform="translate(364.4047619047619 782.6190476190476) rotate(0 271.25 70)"><path d="M-1.38 -1.05 L540.84 0.25 L543.49 140.52 L-1.44 140.18" stroke="none" stroke-width="0" fill="#ffffff"/><path d="M-0.27 -0.38 C168.34 -1.99, 336.83 -2.46, 542.23 -0.11 M-0.29 -0.35 C211.29 1.55, 423.37 1.63, 542.19 -0.02 M543.75 -1.59 C543.73 43.36, 541.83 84.65, 541.04 141.03 M541.98 -0.52 C542.38 47.37, 542.59 95.82, 542.6 140.43 M541.86 139.48 C333.96 139.34, 124.71 140.14, -0.18 139.99 M542.76 139.93 C383.23 141.72, 223.97 141.91, -0.23 140.07 M-0.11 140.39 C-2.17 100.54, 0.11 63.5, 1.04 -1.38 M0.32 140.93 C0.83 95.28, 0.35 51.68, -0.62 0.93" stroke="#000000" stroke-width="1" fill="none"/></g><g transform="translate(619.4047619047619 831.1190476190476) rotate(0 23 21)"><text x="0" y="33" font-family="Helvetica, Segoe UI Emoji" font-size="36px" fill="#000000" text-anchor="start" style="white-space: pre;" direction="ltr">Do</text></g></svg>